<svg xmlns="http://www.w3.org/2000/svg" version="1.1" xmlns:xlink="http://www.w3.org/1999/xlink" viewBox="0 0 31.186493937199806 25.173015340447854"><g transform="matrix(0.8427625643281931,0,0,0.8427625643281931,4.430912357269365,19.036133059096564)"><g transform="matrix(1,0,0,1,0,0)" clip-path="url(#SvgjsClipPath97827)"><g clip-path="url(#SvgjsClipPath978258ee71d87-118d-402e-8226-5e827d62be0a)"><path d=" M 24.690710529423008 -14.476416683694955 L 24.626560887769163 -14.580043027905011 L 24.577215009573898 -14.634323493919805 C 22.53923024010945 -16.006138907748177 19.770926473355075 -15.87290503662096 17.658922886597722 -15.344904139931622 L 13.09936374135522 -17.891151454807304 L 8.411505312805026 -15.098174748955296 C 6.299501726047677 -15.601502706547 3.8716845188406324 -15.74460575331327 1.9274569179471848 -14.634323493919805 L 1.8781110397519192 -14.580043027905011 L 1.8139613980980744 -14.476416683694955 L 1.7892884590004416 -14.402397866402056 L 1.7744846955418616 -14.274098583094364 L 1.779419283361388 -14.200079765801469 C 2.4801307537341533 -11.890692666263059 3.945703336133529 -10.504073488976108 5.574117316577279 -9.91685753845245 L 5.653070721689703 -4.552960578627127 L 13.351027720151071 -0.25000000000000355 L 13.513869118195446 -0.34869175639053296 L 20.9305546109438 -4.770082442686295 L 20.856535793650902 -9.88725001153529 C 22.504688125372756 -10.459662198600368 24.004802822508818 -11.851215963706846 24.71044888070111 -14.195145177981942 L 24.715383468520642 -14.269163995274837 L 24.715383468520642 -14.402397866402055 L 24.690710529423008 -14.476416683694955 Z M 13.109232916994271 -17.13615951841975 L 16.77069707908295 -15.093240161135771 C 16.065051020890657 -14.861314533618025 15.477835070367 -14.594846791363592 15.092937220443932 -14.357986576026322 C 15.078133456985352 -14.34811740038727 15.063329693526773 -14.343182812567742 15.048525930068195 -14.33331363692869 C 14.989310876233874 -14.451743744597323 14.920226646760504 -14.555370088807383 14.851142417287132 -14.649127257378385 C 14.841273241648082 -14.663931020836964 14.8264694781895 -14.678734784295544 14.81660030255045 -14.69847313557365 C 14.747516073077078 -14.792230304144653 14.663628080145125 -14.876118297076605 14.584674675032703 -14.950137114369504 C 14.298468581500165 -15.221539444443462 14.041870014884786 -15.315296613014464 14.041870014884786 -15.315296613014464 C 13.819813563006091 -15.409053781585467 13.573084172029766 -15.463334247600262 13.316485605414387 -15.468268835419789 C 13.296747254136282 -15.468268835419789 13.281943490677705 -15.463334247600262 13.262205139399596 -15.463334247600262 C 13.24246678812149 -15.463334247600262 13.227663024662911 -15.468268835419789 13.207924673384802 -15.468268835419789 C 12.951326106769423 -15.463334247600262 12.709531303612623 -15.40905378158547 12.482540263914403 -15.315296613014464 C 12.487474851733932 -15.315296613014464 11.653529510233948 -15.048828870760035 11.38212718015999 -14.126060948508572 C 10.785042053997282 -14.372790339484897 10.069526820165937 -14.634323493919805 9.294796532500273 -14.861314533618023 L 13.109232916994271 -17.13615951841975 Z M 13.257270551580067 -13.272377255730486 C 13.25233596376054 -13.272377255730486 13.25233596376054 -13.272377255730486 13.25233596376054 -13.272377255730486 C 13.227663024662908 -13.272377255730486 12.778615533085993 -13.514172058887283 12.053231123615596 -13.839854854976036 C 12.068034887074173 -13.894135320990827 12.082838650532755 -13.943481199186092 12.10751158963039 -13.992827077381357 C 12.295025926772396 -14.446809156777796 12.744073418349306 -14.757688189407968 13.26220513939959 -14.767557365047022 C 13.355962307970595 -14.767557365047022 13.449719476541603 -14.752753601588442 13.538542057293078 -14.733015250310336 C 13.632299225864083 -14.708342311212704 13.80500979954751 -14.65406184519791 13.972785785411414 -14.540566325348802 C 14.091215893080047 -14.456678332416852 14.194842237290105 -14.357986576026322 14.278730230222054 -14.24449105617721 C 14.323141520597794 -14.180341414523365 14.362618223154008 -14.111257185049997 14.397160337890691 -14.037238367757098 C 14.40209492571022 -14.022434604298518 14.41196410134927 -14.007630840839937 14.416898689168796 -13.99282707738136 L 14.416898689168796 -13.987892489561833 C 14.323141520597794 -13.933612023547038 14.234318939846316 -13.87933155753225 14.145496359094837 -13.825051091517457 L 13.237532200301958 -13.28224643136954 L 13.257270551580067 -13.272377255730486 Z M 15.586396002396581 -9.14212725078679 C 15.063329693526773 -9.378987466124064 14.436637040446902 -9.487548398153645 13.869159441201356 -9.546763451987967 L 13.869159441201356 -9.556632627627017 C 13.824748150825618 -9.561567215446544 13.775402272630352 -9.561567215446544 13.73099098225461 -9.566501803266068 C 13.716187218796032 -9.566501803266068 13.696448867517926 -9.566501803266068 13.68164510405935 -9.5714363910856 C 13.597757111127395 -9.576370978905127 13.51880370601497 -9.586240154544177 13.43491571308302 -9.5911747423637 C 13.375700659248704 -9.5911747423637 13.311551017594857 -9.586240154544173 13.247401375941013 -9.586240154544173 C 13.188186322106697 -9.586240154544173 13.124036680452848 -9.5911747423637 13.059887038799005 -9.5911747423637 C 12.975999045867052 -9.5911747423637 12.892111052935103 -9.58130556672465 12.808223060003149 -9.5714363910856 C 12.793419296544572 -9.5714363910856 12.773680945266467 -9.5714363910856 12.758877181807884 -9.566501803266068 C 12.714465891432146 -9.56156721544654 12.66512001323688 -9.56156721544654 12.620708722861142 -9.556632627627017 L 12.620708722861142 -9.546763451987967 C 12.05816571143512 -9.487548398153645 11.441342233994307 -9.344445351387376 10.92321051294402 -9.10265054823058 C 10.92814510076355 -9.260557358455427 10.99229474241739 -9.43820251995838 10.997229330236921 -9.601043918002759 C 11.05150979625171 -9.798427430783818 11.11072485008603 -9.995810943564878 11.189678255198451 -10.183325280706889 C 11.342650477603776 -10.553419367171376 11.544968578204362 -10.913644277996813 11.776894205722108 -11.239327074085562 C 11.776894205722108 -11.239327074085562 12.255549224216177 -11.826543024609215 12.359175568426236 -11.925234780999745 C 12.615774135041615 -12.171964171976072 12.966129870227997 -12.418693562952399 13.074690802257583 -12.492712380245294 C 13.084559977896633 -12.49764696806482 13.094429153535689 -12.507516143703874 13.104298329174743 -12.5124507315234 C 15.704826110065218 -11.165308256792663 15.581461414577054 -9.300034061011639 15.586396002396581 -9.14212725078679 Z M 13.148709619550486 -5.791542121328286 C 12.689792952334518 -5.801411296967336 12.275287575494291 -5.682981189298699 11.865716786473588 -5.4905322643371655 C 11.663398685873002 -5.786607533508759 11.485753524370049 -6.082682802680347 11.357454241062358 -6.388627247490993 C 11.327846714145197 -6.457711476964363 11.308108362867092 -6.531730294257258 11.278500835949933 -6.600814523730632 C 11.771959617902585 -6.87221685380459 12.35917556842624 -7.000516137112282 12.961195282408474 -7.015319900570859 L 12.961195282408474 -7.005450724931805 C 12.961195282408474 -7.000516137112276 12.961195282408474 -7.000516137112276 12.961195282408474 -6.995581549292753 C 13.054952450979478 -7.005450724931805 13.153644207370009 -7.015319900570859 13.247401375941017 -7.0202544883903855 C 13.346093132331545 -7.015319900570859 13.439850300902547 -7.005450724931805 13.533607469473555 -6.995581549292753 C 13.533607469473555 -7.000516137112282 13.533607469473555 -7.000516137112282 13.533607469473555 -7.005450724931805 L 13.533607469473555 -7.015319900570859 C 14.135627183455789 -6.995581549292753 14.722843133979445 -6.867282265985063 15.216301915932098 -6.600814523730632 C 15.186694389014937 -6.526795706437735 15.166956037736831 -6.457711476964363 15.137348510819672 -6.388627247490993 C 15.00904922751198 -6.082682802680347 14.831404066009027 -5.786607533508759 14.629085965408441 -5.4905322643371655 C 14.017197075787148 -5.761934594411125 13.158578795189536 -5.791542121328286 13.148709619550486 -5.791542121328286 Z M 14.180038473831528 -4.913185489452568 C 13.918505319396623 -4.612175632461447 13.60762628676645 -4.316100363289857 13.247401375941017 -4.034828857576846 C 12.892111052935107 -4.316100363289857 12.581232020304935 -4.607241044641924 12.309829690230975 -4.913185489452568 C 12.581232020304935 -5.021746421482149 12.847699762559365 -5.100699826594575 13.13884044391143 -5.095765238775048 C 13.148709619550486 -5.095765238775048 13.158578795189536 -5.095765238775048 13.168447970828591 -5.090830650955521 C 13.168447970828591 -5.105634414414098 13.326354781053443 -5.115503590053153 13.321420193233916 -5.090830650955521 C 13.33128936887297 -5.090830650955521 13.341158544512021 -5.095765238775048 13.351027720151075 -5.095765238775048 C 13.642168401503138 -5.100699826594571 13.908636143757567 -5.021746421482149 14.180038473831528 -4.913185489452568 Z M 13.277008902858173 -7.716031370943629 C 13.267139727219122 -7.716031370943629 13.257270551580067 -7.716031370943629 13.247401375941013 -7.716031370943629 C 13.237532200301958 -7.716031370943629 13.227663024662908 -7.716031370943629 13.217793849023852 -7.716031370943629 C 12.497344027372979 -7.730835134402206 11.752221266624474 -7.597601263274992 11.08111732316887 -7.266983879366711 C 11.012033093695498 -7.5926666754554635 10.972556391139287 -7.913414883724686 10.962687215500234 -8.234163091993908 C 10.962687215500234 -8.26377061891107 10.962687215500234 -8.30324732146728 10.962687215500234 -8.337789436203968 C 11.470949760911468 -8.633864705375561 12.05816571143512 -8.806575279058986 12.679923776695462 -8.865790332893306 C 12.709531303612623 -8.865790332893306 12.734204242710256 -8.870724920712835 12.763811769627411 -8.870724920712835 C 12.921718579852259 -8.885528684171412 13.084559977896637 -8.885528684171412 13.247401375941013 -8.885528684171412 C 13.410242773985388 -8.885528684171412 13.568149584210236 -8.880594096351885 13.726056394435084 -8.870724920712835 C 13.755663921352243 -8.870724920712835 13.780336860449875 -8.865790332893306 13.809944387367036 -8.865790332893306 C 14.431702452627375 -8.806575279058986 15.01891840315103 -8.633864705375561 15.527180948562261 -8.337789436203968 C 15.527180948562261 -8.303247321467284 15.527180948562261 -8.26377061891107 15.527180948562261 -8.234163091993908 C 15.522246360742734 -7.913414883724686 15.482769658186527 -7.5926666754554635 15.413685428713151 -7.266983879366711 C 14.742581485257547 -7.597601263274992 13.997458724509043 -7.735769722221734 13.277008902858173 -7.716031370943629 Z M 2.5294766319294197 -14.190210590162419 C 6.393258894618682 -15.88770880007954 12.013754421059385 -13.188489262798534 12.47267108827535 -12.867741054529311 C 12.467736500455821 -12.862806466709785 12.275287575494287 -12.699965068665412 12.087773238352279 -12.542058258440559 L 12.063100299254646 -12.522319907162455 C 12.05816571143512 -12.517385319342928 12.053231123615596 -12.512450731523401 12.048296535796068 -12.512450731523401 C 11.959473955044588 -12.438431914230506 11.87558596211264 -12.364413096937607 11.816370908278323 -12.310132630922814 C 11.658464098053475 -12.171964171976072 11.258762484671824 -11.683439977842948 11.258762484671824 -11.683439977842948 C 11.14033237700319 -11.530467755437623 11.031771444973604 -11.38243012085183 10.933079688583074 -11.229457898446508 C 10.928145100763548 -11.229457898446508 10.928145100763548 -11.224523310626981 10.92321051294402 -11.224523310626981 L 10.933079688583074 -11.244261661905085 C 10.933079688583074 -11.244261661905085 10.730761587982485 -11.071551088221657 9.931358361219191 -10.8001487581477 C 9.798124490091976 -10.755737467771961 8.939506209494358 -10.513942664615161 8.939506209494358 -10.513942664615161 L 8.944440797313886 -10.504073488976108 C 8.446047427541707 -10.380708793487944 8.006869111603848 -10.296820800555995 7.80455101100326 -10.282017037097415 C 7.434456924538776 -10.257344097999782 3.8272732284648923 -10.114241051233515 2.5294766319294197 -14.190210590162419 Z M 13.341158544512016 -1.0148611120266189 L 6.304436313867205 -4.942793016369729 L 6.235352084393834 -9.719474025671396 C 6.773222156722224 -9.596109330183232 7.320961404689667 -9.551698039807494 7.848962301379005 -9.576370978905127 C 8.312813556414493 -9.601043918002759 9.674759794603816 -9.906988362813404 10.454424670089004 -10.277082449277891 C 10.10900352272215 -9.354314527026435 10.163283988736943 -8.609191766277927 10.192891515654098 -8.308181909286816 C 10.48896678482569 -4.932923840730677 13.272074315038646 -3.1416684622425493 13.272074315038646 -3.1416684622425493 C 13.272074315038646 -3.1416684622425493 15.833125393372905 -4.898381725993994 16.232827006754555 -8.140405923422913 C 16.331518763145084 -8.91020162326905 16.247630770213135 -9.605978505822288 16.050247257432073 -10.203063631984996 C 16.844715896375845 -9.80336201860335 18.275746364038536 -9.591174742363709 18.645840450503023 -9.571436391085603 C 19.15903758373378 -9.546763451987971 19.682103892603592 -9.586240154544182 20.195301025834347 -9.699735674393295 L 20.26438525530772 -5.145111116970318 L 13.341158544512016 -1.0148611120266189 Z M 18.685317153059234 -10.282017037097415 C 18.52247575501486 -10.296820800555995 18.152381668550372 -10.33136291529268 17.693465001334403 -10.430054671683209 L 17.693465001334403 -10.434989259502737 C 17.693465001334403 -10.434989259502737 16.80523919381963 -10.676784062659536 16.667070734872887 -10.721195353035277 C 16.55357521502378 -10.760672055591488 16.449948870813728 -10.800148758147703 16.356191702242718 -10.834690872884387 C 16.10946231126639 -10.938317217094443 15.867667508109593 -11.05674732476308 15.63080729277232 -11.194915783709822 C 15.611068941494214 -11.209719547168403 15.606134353674687 -11.214654134987928 15.606134353674687 -11.214654134987928 L 15.611068941494214 -11.209719547168401 C 15.596265178035637 -11.219588722807455 15.581461414577054 -11.224523310626981 15.56665765111848 -11.234392486266033 C 15.56665765111848 -11.234392486266033 15.56665765111848 -11.234392486266033 15.56665765111848 -11.229457898446505 C 15.522246360742741 -11.303476715739404 15.472900482547477 -11.372560945212774 15.42355460435221 -11.441645174686148 C 14.752450660896601 -12.369347684757132 13.874094029020883 -12.857871878890258 13.874094029020883 -12.857871878890258 C 13.893832380298988 -12.872675642348836 13.9135707315771 -12.882544817987888 13.928374495035676 -12.897348581446469 L 14.964637937136246 -13.499368295428702 C 15.12747933518062 -13.58819087618018 15.280451557585941 -13.67207886911213 15.403816253074105 -13.74609768640503 C 17.72307252825157 -14.98961381692571 21.21182611665682 -15.877839624440483 23.96532611995261 -14.190210590162415 C 22.667529523417134 -10.109306463413986 19.06034582734325 -10.252409510180257 18.685317153059234 -10.282017037097415 Z" fill="url(#gradient-32b85bf6-134f-4c8a-85c2-53995fe933c8_0)" transform="matrix(1,0,0,1,0,0)" fill-rule="nonzero"></path></g></g><g><path d=" M 0.8805000000000001 0.016499999999999737 L 0.8805000000000001 0.25049999999999983 L 0.5985 0.25049999999999983 L 0.5985 1.0739999999999998 L 0.3045 1.0739999999999998 L 0.3045 0.25049999999999983 L 0.025500000000000002 0.25049999999999983 L 0.025500000000000002 0.016499999999999737 L 0.8805000000000001 0.016499999999999737 M 1.224005859375 1.0147499999999998 Q 1.099505859375 0.9449999999999998 1.026755859375 0.8212499999999998 Q 0.954005859375 0.6974999999999998 0.954005859375 0.5414999999999999 Q 0.954005859375 0.38549999999999984 1.026755859375 0.2617499999999998 Q 1.099505859375 0.1379999999999998 1.224005859375 0.06899999999999973 Q 1.348505859375 -2.220446049250313e-16 1.497005859375 -2.220446049250313e-16 Q 1.647005859375 -2.220446049250313e-16 1.770755859375 0.06899999999999973 Q 1.8945058593750002 0.1379999999999998 1.966505859375 0.2617499999999998 Q 2.0385058593750003 0.38549999999999984 2.0385058593750003 0.5414999999999999 Q 2.0385058593750003 0.6974999999999998 1.966505859375 0.8212499999999998 Q 1.8945058593750002 0.9449999999999998 1.7700058593749999 1.0147499999999998 Q 1.645505859375 1.0844999999999998 1.497005859375 1.0844999999999998 Q 1.348505859375 1.0844999999999998 1.224005859375 1.0147499999999998 M 1.674755859375 0.7379999999999998 Q 1.740005859375 0.6644999999999999 1.740005859375 0.5414999999999999 Q 1.740005859375 0.41549999999999987 1.674755859375 0.3427499999999998 Q 1.609505859375 0.2699999999999998 1.497005859375 0.2699999999999998 Q 1.383005859375 0.2699999999999998 1.318505859375 0.3427499999999998 Q 1.254005859375 0.41549999999999987 1.254005859375 0.5414999999999999 Q 1.254005859375 0.6659999999999998 1.318505859375 0.7387499999999998 Q 1.383005859375 0.8114999999999999 1.497005859375 0.8114999999999999 Q 1.609505859375 0.8114999999999999 1.674755859375 0.7379999999999998 M 2.46448681640625 0.8489999999999999 L 2.79298681640625 0.8489999999999999 L 2.79298681640625 1.0739999999999998 L 2.17048681640625 1.0739999999999998 L 2.17048681640625 0.016499999999999737 L 2.46448681640625 0.016499999999999737 L 2.46448681640625 0.8489999999999999 M 3.201028564453125 0.2519999999999998 L 3.201028564453125 0.4244999999999999 L 3.538528564453125 0.4244999999999999 L 3.538528564453125 0.6479999999999999 L 3.201028564453125 0.6479999999999999 L 3.201028564453125 0.8384999999999998 L 3.583528564453125 0.8384999999999998 L 3.583528564453125 1.0739999999999998 L 2.907028564453125 1.0739999999999998 L 2.907028564453125 0.016499999999999737 L 3.583528564453125 0.016499999999999737 L 3.583528564453125 0.2519999999999998 L 3.201028564453125 0.2519999999999998 M 4.264489013671875 1.0739999999999998 L 4.054489013671875 0.6839999999999998 L 4.022989013671875 0.6839999999999998 L 4.022989013671875 1.0739999999999998 L 3.728989013671875 1.0739999999999998 L 3.728989013671875 0.016499999999999737 L 4.192489013671875 0.016499999999999737 Q 4.319989013671875 0.016499999999999737 4.4084890136718755 0.06074999999999986 Q 4.496989013671875 0.10499999999999987 4.541989013671875 0.1822499999999998 Q 4.586989013671875 0.25949999999999984 4.586989013671875 0.3554999999999998 Q 4.586989013671875 0.4634999999999998 4.527739013671875 0.5452499999999998 Q 4.468489013671875 0.6269999999999998 4.354489013671875 0.6614999999999998 L 4.592989013671875 1.0739999999999998 L 4.264489013671875 1.0739999999999998 M 4.022989013671875 0.4829999999999999 L 4.168489013671875 0.4829999999999999 Q 4.228489013671875 0.4829999999999999 4.258489013671875 0.4544999999999998 Q 4.2884890136718745 0.4259999999999998 4.2884890136718745 0.3719999999999998 Q 4.2884890136718745 0.32099999999999984 4.257739013671875 0.29174999999999984 Q 4.226989013671875 0.26249999999999984 4.168489013671875 0.26249999999999984 L 4.022989013671875 0.26249999999999984 L 4.022989013671875 0.4829999999999999 M 5.389505126953125 0.9014999999999999 L 5.014505126953125 0.9014999999999999 L 4.957505126953125 1.0739999999999998 L 4.648505126953125 1.0739999999999998 L 5.034005126953125 0.016499999999999737 L 5.373005126953125 0.016499999999999737 L 5.757005126953125 1.0739999999999998 L 5.4465051269531255 1.0739999999999998 L 5.389505126953125 0.9014999999999999 M 5.316005126953125 0.6764999999999999 L 5.202005126953125 0.3344999999999998 L 5.089505126953125 0.6764999999999999 L 5.316005126953125 0.6764999999999999 M 6.832512451171875 1.0739999999999998 L 6.538512451171875 1.0739999999999998 L 6.147012451171875 0.4829999999999999 L 6.147012451171875 1.0739999999999998 L 5.853012451171875 1.0739999999999998 L 5.853012451171875 0.016499999999999737 L 6.147012451171875 0.016499999999999737 L 6.538512451171875 0.6149999999999998 L 6.538512451171875 0.016499999999999737 L 6.832512451171875 0.016499999999999737 L 6.832512451171875 1.0739999999999998 M 7.321534423828125 0.8354999999999998 L 7.761034423828125 0.8354999999999998 L 7.761034423828125 1.0739999999999998 L 6.991534423828125 1.0739999999999998 L 6.991534423828125 0.8504999999999998 L 7.426534423828125 0.25349999999999984 L 6.991534423828125 0.25349999999999984 L 6.991534423828125 0.016499999999999737 L 7.761034423828125 0.016499999999999737 L 7.761034423828125 0.23999999999999988 L 7.321534423828125 0.8354999999999998 M 8.74274853515625 0.6232499999999999 Q 8.797498535156251 0.6944999999999999 8.797498535156251 0.7859999999999998 Q 8.797498535156251 0.9209999999999998 8.704498535156251 0.9974999999999998 Q 8.61149853515625 1.0739999999999998 8.44349853515625 1.0739999999999998 L 7.91999853515625 1.0739999999999998 L 7.91999853515625 0.016499999999999737 L 8.42699853515625 0.016499999999999737 Q 8.58899853515625 0.016499999999999737 8.68124853515625 0.0884999999999998 Q 8.77349853515625 0.16049999999999986 8.77349853515625 0.2909999999999998 Q 8.77349853515625 0.3839999999999998 8.72474853515625 0.4462499999999998 Q 8.67599853515625 0.5084999999999998 8.59499853515625 0.5309999999999998 Q 8.68799853515625 0.5519999999999998 8.74274853515625 0.6232499999999999 M 8.21399853515625 0.4364999999999998 L 8.36249853515625 0.4364999999999998 Q 8.47349853515625 0.4364999999999998 8.47349853515625 0.34499999999999986 Q 8.47349853515625 0.25049999999999983 8.36249853515625 0.25049999999999983 L 8.21399853515625 0.25049999999999983 L 8.21399853515625 0.4364999999999998 M 8.49599853515625 0.7439999999999998 Q 8.49599853515625 0.6959999999999998 8.46674853515625 0.6704999999999999 Q 8.43749853515625 0.6449999999999998 8.38349853515625 0.6449999999999998 L 8.21399853515625 0.6449999999999998 L 8.21399853515625 0.8369999999999999 L 8.38499853515625 0.8369999999999999 Q 8.49599853515625 0.8369999999999999 8.49599853515625 0.7439999999999998 M 9.220529296875 0.016499999999999737 L 9.220529296875 1.0739999999999998 L 8.926529296875 1.0739999999999998 L 8.926529296875 0.016499999999999737 L 9.220529296875 0.016499999999999737 M 9.68250439453125 0.2519999999999998 L 9.68250439453125 0.4244999999999999 L 10.02000439453125 0.4244999999999999 L 10.02000439453125 0.6479999999999999 L 9.68250439453125 0.6479999999999999 L 9.68250439453125 0.8384999999999998 L 10.06500439453125 0.8384999999999998 L 10.06500439453125 1.0739999999999998 L 9.38850439453125 1.0739999999999998 L 9.38850439453125 0.016499999999999737 L 10.06500439453125 0.016499999999999737 L 10.06500439453125 0.2519999999999998 L 9.68250439453125 0.2519999999999998 M 11.18996484375 1.0739999999999998 L 10.89596484375 1.0739999999999998 L 10.50446484375 0.4829999999999999 L 10.50446484375 1.0739999999999998 L 10.21046484375 1.0739999999999998 L 10.21046484375 0.016499999999999737 L 10.50446484375 0.016499999999999737 L 10.89596484375 0.6149999999999998 L 10.89596484375 0.016499999999999737 L 11.18996484375 0.016499999999999737 L 11.18996484375 1.0739999999999998 M 11.65198681640625 0.2519999999999998 L 11.65198681640625 0.4244999999999999 L 11.98948681640625 0.4244999999999999 L 11.98948681640625 0.6479999999999999 L 11.65198681640625 0.6479999999999999 L 11.65198681640625 0.8384999999999998 L 12.03448681640625 0.8384999999999998 L 12.03448681640625 1.0739999999999998 L 11.35798681640625 1.0739999999999998 L 11.35798681640625 0.016499999999999737 L 12.03448681640625 0.016499999999999737 L 12.03448681640625 0.2519999999999998 L 11.65198681640625 0.2519999999999998 M 13.001915771484375 1.0739999999999998 L 12.791915771484375 0.6839999999999998 L 12.760415771484375 0.6839999999999998 L 12.760415771484375 1.0739999999999998 L 12.466415771484375 1.0739999999999998 L 12.466415771484375 0.016499999999999737 L 12.929915771484374 0.016499999999999737 Q 13.057415771484376 0.016499999999999737 13.145915771484376 0.06074999999999986 Q 13.234415771484375 0.10499999999999987 13.279415771484375 0.1822499999999998 Q 13.324415771484375 0.25949999999999984 13.324415771484375 0.3554999999999998 Q 13.324415771484375 0.4634999999999998 13.265165771484375 0.5452499999999998 Q 13.205915771484374 0.6269999999999998 13.091915771484375 0.6614999999999998 L 13.330415771484375 1.0739999999999998 L 13.001915771484375 1.0739999999999998 M 12.760415771484375 0.4829999999999999 L 12.905915771484375 0.4829999999999999 Q 12.965915771484376 0.4829999999999999 12.995915771484375 0.4544999999999998 Q 13.025915771484375 0.4259999999999998 13.025915771484375 0.3719999999999998 Q 13.025915771484375 0.32099999999999984 12.995165771484375 0.29174999999999984 Q 12.964415771484376 0.26249999999999984 12.905915771484375 0.26249999999999984 L 12.760415771484375 0.26249999999999984 L 12.760415771484375 0.4829999999999999 M 14.404431884765625 0.016499999999999737 L 14.404431884765625 1.0739999999999998 L 14.110431884765624 1.0739999999999998 L 14.110431884765624 0.6494999999999999 L 13.751931884765625 0.6494999999999999 L 13.751931884765625 1.0739999999999998 L 13.457931884765625 1.0739999999999998 L 13.457931884765625 0.016499999999999737 L 13.751931884765625 0.016499999999999737 L 13.751931884765625 0.4139999999999998 L 14.110431884765624 0.4139999999999998 L 14.110431884765624 0.016499999999999737 L 14.404431884765625 0.016499999999999737 M 14.8664033203125 0.2519999999999998 L 14.8664033203125 0.4244999999999999 L 15.2039033203125 0.4244999999999999 L 15.2039033203125 0.6479999999999999 L 14.8664033203125 0.6479999999999999 L 14.8664033203125 0.8384999999999998 L 15.2489033203125 0.8384999999999998 L 15.2489033203125 1.0739999999999998 L 14.5724033203125 1.0739999999999998 L 14.5724033203125 0.016499999999999737 L 15.2489033203125 0.016499999999999737 L 15.2489033203125 0.2519999999999998 L 14.8664033203125 0.2519999999999998 M 15.68836376953125 0.016499999999999737 L 15.68836376953125 1.0739999999999998 L 15.39436376953125 1.0739999999999998 L 15.39436376953125 0.016499999999999737 L 15.68836376953125 0.016499999999999737 M 16.8358388671875 1.0739999999999998 L 16.5418388671875 1.0739999999999998 L 16.1503388671875 0.4829999999999999 L 16.1503388671875 1.0739999999999998 L 15.8563388671875 1.0739999999999998 L 15.8563388671875 0.016499999999999737 L 16.1503388671875 0.016499999999999737 L 16.5418388671875 0.6149999999999998 L 16.5418388671875 0.016499999999999737 L 16.8358388671875 0.016499999999999737 L 16.8358388671875 1.0739999999999998 M 17.29786083984375 0.8489999999999999 L 17.62636083984375 0.8489999999999999 L 17.62636083984375 1.0739999999999998 L 17.00386083984375 1.0739999999999998 L 17.00386083984375 0.016499999999999737 L 17.29786083984375 0.016499999999999737 L 17.29786083984375 0.8489999999999999 M 18.409402587890625 0.9014999999999999 L 18.034402587890625 0.9014999999999999 L 17.977402587890627 1.0739999999999998 L 17.668402587890625 1.0739999999999998 L 18.053902587890626 0.016499999999999737 L 18.392902587890624 0.016499999999999737 L 18.776902587890625 1.0739999999999998 L 18.466402587890624 1.0739999999999998 L 18.409402587890625 0.9014999999999999 M 18.335902587890626 0.6764999999999999 L 18.221902587890625 0.3344999999999998 L 18.109402587890624 0.6764999999999999 L 18.335902587890626 0.6764999999999999 M 19.852409912109376 1.0739999999999998 L 19.558409912109376 1.0739999999999998 L 19.166909912109375 0.4829999999999999 L 19.166909912109375 1.0739999999999998 L 18.872909912109375 1.0739999999999998 L 18.872909912109375 0.016499999999999737 L 19.166909912109375 0.016499999999999737 L 19.558409912109376 0.6149999999999998 L 19.558409912109376 0.016499999999999737 L 19.852409912109376 0.016499999999999737 L 19.852409912109376 1.0739999999999998 M 20.730681884765627 0.08324999999999982 Q 20.855931884765624 0.1499999999999998 20.923431884765623 0.2699999999999998 Q 20.990931884765626 0.3899999999999998 20.990931884765626 0.5444999999999999 Q 20.990931884765626 0.6974999999999998 20.922681884765623 0.8174999999999999 Q 20.854431884765624 0.9374999999999998 20.729181884765627 1.00575 Q 20.603931884765625 1.0739999999999998 20.438931884765626 1.0739999999999998 L 20.020431884765625 1.0739999999999998 L 20.020431884765625 0.016499999999999737 L 20.438931884765626 0.016499999999999737 Q 20.605431884765625 0.016499999999999737 20.730681884765627 0.08324999999999982 M 20.618931884765626 0.7439999999999998 Q 20.692431884765625 0.6734999999999998 20.692431884765625 0.5444999999999999 Q 20.692431884765625 0.4139999999999998 20.618931884765626 0.3427499999999998 Q 20.545431884765627 0.27149999999999985 20.416431884765625 0.27149999999999985 L 20.314431884765625 0.27149999999999985 L 20.314431884765625 0.8144999999999998 L 20.416431884765625 0.8144999999999998 Q 20.545431884765627 0.8144999999999998 20.618931884765626 0.7439999999999998 M 21.772409912109374 0.43199999999999983 L 21.772409912109374 0.6764999999999999 L 21.092909912109373 0.6764999999999999 L 21.092909912109373 0.43199999999999983 L 21.772409912109374 0.43199999999999983 M 22.781164306640626 0.5437499999999998 Q 22.736914306640625 0.6224999999999998 22.647664306640625 0.6697499999999998 Q 22.558414306640625 0.7169999999999999 22.429414306640624 0.7169999999999999 L 22.283914306640625 0.7169999999999999 L 22.283914306640625 1.0739999999999998 L 21.989914306640625 1.0739999999999998 L 21.989914306640625 0.016499999999999737 L 22.429414306640624 0.016499999999999737 Q 22.556914306640625 0.016499999999999737 22.646164306640625 0.06149999999999989 Q 22.735414306640624 0.10649999999999982 22.780414306640626 0.18599999999999983 Q 22.825414306640624 0.26549999999999985 22.825414306640624 0.3689999999999999 Q 22.825414306640624 0.46499999999999986 22.781164306640626 0.5437499999999998 M 22.525414306640624 0.3689999999999999 Q 22.525414306640624 0.25349999999999984 22.400914306640626 0.25349999999999984 L 22.283914306640625 0.25349999999999984 L 22.283914306640625 0.4829999999999999 L 22.400914306640626 0.4829999999999999 Q 22.525414306640624 0.4829999999999999 22.525414306640624 0.3689999999999999 M 23.660893798828123 0.016499999999999737 L 23.660893798828123 0.25049999999999983 L 23.237893798828125 0.25049999999999983 L 23.237893798828125 0.4364999999999998 L 23.549893798828126 0.4364999999999998 L 23.549893798828126 0.6599999999999998 L 23.237893798828125 0.6599999999999998 L 23.237893798828125 1.0739999999999998 L 22.943893798828125 1.0739999999999998 L 22.943893798828125 0.016499999999999737 L 23.660893798828123 0.016499999999999737 M 24.45435498046875 0.9014999999999999 L 24.07935498046875 0.9014999999999999 L 24.02235498046875 1.0739999999999998 L 23.71335498046875 1.0739999999999998 L 24.09885498046875 0.016499999999999737 L 24.43785498046875 0.016499999999999737 L 24.82185498046875 1.0739999999999998 L 24.51135498046875 1.0739999999999998 L 24.45435498046875 0.9014999999999999 M 24.38085498046875 0.6764999999999999 L 24.26685498046875 0.3344999999999998 L 24.15435498046875 0.6764999999999999 L 24.38085498046875 0.6764999999999999 M 25.2118623046875 0.8489999999999999 L 25.5403623046875 0.8489999999999999 L 25.5403623046875 1.0739999999999998 L 24.9178623046875 1.0739999999999998 L 24.9178623046875 0.016499999999999737 L 25.2118623046875 0.016499999999999737 L 25.2118623046875 0.8489999999999999 M 25.975404052734376 0.8354999999999998 L 26.414904052734375 0.8354999999999998 L 26.414904052734375 1.0739999999999998 L 25.645404052734374 1.0739999999999998 L 25.645404052734374 0.8504999999999998 L 26.080404052734377 0.25349999999999984 L 25.645404052734374 0.25349999999999984 L 25.645404052734374 0.016499999999999737 L 26.414904052734375 0.016499999999999737 L 26.414904052734375 0.23999999999999988 L 25.975404052734376 0.8354999999999998" fill="#525252" fill-rule="nonzero"></path></g><g><path d=" M 9.689053890613089 1.4558577476162446 L 9.292975424617506 2.5725126999411407 L 8.952570638581141 2.5725126999411407 L 8.556492172585559 1.4558577476162446 L 8.845995308373496 1.4558577476162446 L 9.122773031599325 2.2989163298558384 L 9.401141431395416 1.4558577476162446 L 9.689053890613089 1.4558577476162446 M 10.605252527183035 1.4558577476162446 L 10.605252527183035 1.6737804377423284 L 10.309386685114045 1.6737804377423284 L 10.309386685114045 2.5725126999411407 L 10.037380991599006 2.5725126999411407 L 10.037380991599006 1.6737804377423284 L 9.741515149530017 1.6737804377423284 L 9.741515149530017 1.4558577476162446 L 10.605252527183035 1.4558577476162446 M 11.42604707432175 1.9012471872899923 L 11.42604707432175 2.127123260267393 L 10.726149383405861 2.127123260267393 L 10.726149383405861 1.9012471872899923 L 11.42604707432175 1.9012471872899923 M 12.234137956429592 2.5725126999411407 L 12.001899177171138 2.150983408821344 L 11.93668143779034 2.150983408821344 L 11.93668143779034 2.5725126999411407 L 11.6646757442753 2.5725126999411407 L 11.6646757442753 1.4558577476162446 L 12.121199919940892 1.4558577476162446 Q 12.253226075272753 1.4558577476162446 12.34628065463316 1.501987368153883 Q 12.439335233993567 1.548116988691521 12.485464854531207 1.6284461554898217 Q 12.531594475068845 1.7087753222881228 12.531594475068845 1.8073972696444527 Q 12.531594475068845 1.9187446295628896 12.46876275054344 2.006231840927376 Q 12.405931026018036 2.093719052291862 12.283448930107756 2.1303046134079198 L 12.541138534490425 2.5725126999411407 L 12.234137956429592 2.5725126999411407 M 11.93668143779034 1.9585115438194742 L 12.105293154238257 1.9585115438194742 Q 12.180054953040637 1.9585115438194742 12.217435852441826 1.9219259827034163 Q 12.254816751843016 1.8853404215873586 12.254816751843016 1.8185320056362964 Q 12.254816751843016 1.7549049428257608 12.217435852441826 1.718319381709703 Q 12.180054953040637 1.6817338205936454 12.105293154238257 1.6817338205936454 L 11.93668143779034 1.6817338205936454 L 11.93668143779034 1.9585115438194742 M 12.97376683351504 2.362543392666374 L 13.330078385254037 2.362543392666374 L 13.330078385254037 2.5725126999411407 L 12.70176114 2.5725126999411407 L 12.70176114 1.4558577476162446 L 12.97376683351504 1.4558577476162446 L 12.97376683351504 2.362543392666374 M 14.266970574490745 1.992711090080137 Q 14.22243163052337 2.073040256878438 14.130172389448095 2.122351230556603 Q 14.03791314837282 2.1716622042347677 13.901114963330167 2.1716622042347677 L 13.73250324688225 2.1716622042347677 L 13.73250324688225 2.5725126999411407 L 13.46049755336721 2.5725126999411407 L 13.46049755336721 1.4558577476162446 L 13.901114963330167 1.4558577476162446 Q 14.034731795232291 1.4558577476162446 14.126991036307569 1.501987368153883 Q 14.219250277382844 1.548116988691521 14.265379897920482 1.6292414937749535 Q 14.31150951845812 1.7103659988583861 14.31150951845812 1.8153506524957694 Q 14.31150951845812 1.9123819232818362 14.266970574490745 1.992711090080137 M 13.996555557545971 1.9187446295628896 Q 14.034731795232291 1.882159068446832 14.034731795232291 1.8153506524957694 Q 14.034731795232291 1.7485422365447074 13.996555557545971 1.7119566754286497 Q 13.958379319859649 1.6753711143125918 13.880436167916743 1.6753711143125918 L 13.73250324688225 1.6753711143125918 L 13.73250324688225 1.9553301906789473 L 13.880436167916743 1.9553301906789473 Q 13.958379319859649 1.9553301906789473 13.996555557545971 1.9187446295628896 M 15.062306529529806 1.6737804377423284 L 15.062306529529806 1.899656510719729 L 15.426571464120121 1.899656510719729 L 15.426571464120121 2.1096258179944956 L 15.062306529529806 2.1096258179944956 L 15.062306529529806 2.354590009815057 L 15.474291761228022 2.354590009815057 L 15.474291761228022 2.5725126999411407 L 14.790300836014767 2.5725126999411407 L 14.790300836014767 1.4558577476162446 L 15.474291761228022 1.4558577476162446 L 15.474291761228022 1.6737804377423284 L 15.062306529529806 1.6737804377423284 M 15.661221112555381 2.543085183391268 Q 15.615886830302875 2.5009322542792884 15.615886830302875 2.4388958680390163 Q 15.615886830302875 2.375268805228481 15.661221112555381 2.33232053783137 Q 15.706555394807888 2.2893722704342583 15.77813584046974 2.2893722704342583 Q 15.848125609561329 2.2893722704342583 15.893459891813835 2.33232053783137 Q 15.938794174066341 2.375268805228481 15.938794174066341 2.4388958680390163 Q 15.938794174066341 2.5009322542792884 15.893459891813835 2.543085183391268 Q 15.848125609561329 2.585238112503248 15.77813584046974 2.585238112503248 Q 15.706555394807888 2.585238112503248 15.661221112555381 2.543085183391268 M 17.484864227676017 1.4558577476162446 L 17.088785761680434 2.5725126999411407 L 16.74838097564407 2.5725126999411407 L 16.35230250964849 1.4558577476162446 L 16.641805645436424 1.4558577476162446 L 16.91858336866225 2.2989163298558384 L 17.196951768458344 1.4558577476162446 L 17.484864227676017 1.4558577476162446 M 17.608110593969666 2.543085183391268 Q 17.562776311717162 2.5009322542792884 17.562776311717162 2.4388958680390163 Q 17.562776311717162 2.375268805228481 17.608110593969666 2.33232053783137 Q 17.653444876222174 2.2893722704342583 17.725025321884026 2.2893722704342583 Q 17.795015090975614 2.2893722704342583 17.840349373228122 2.33232053783137 Q 17.88568365548063 2.375268805228481 17.88568365548063 2.4388958680390163 Q 17.88568365548063 2.5009322542792884 17.840349373228122 2.543085183391268 Q 17.795015090975614 2.585238112503248 17.725025321884026 2.585238112503248 Q 17.653444876222174 2.585238112503248 17.608110593969666 2.543085183391268" fill="#69732f" fill-rule="nonzero"></path></g></g><defs><clipPath id="SvgjsClipPath97827"><path d=" M 1.7744846955418616 -17.891151454807304 h 22.940898772978777 v 17.641151454807304 h -22.940898772978777 Z"></path></clipPath><clipPath id="SvgjsClipPath978258ee71d87-118d-402e-8226-5e827d62be0a"><path d=" M 1.7744846955418616 -17.891151454807304 L 24.71538346852064 -17.891151454807304 L 24.71538346852064 -0.25 L 1.7744846955418616 -0.25 Z"></path></clipPath><linearGradient id="gradient-32b85bf6-134f-4c8a-85c2-53995fe933c8_0" x1="0" x2="1" y1="0" y2="1"><stop stop-color="#f7ca4d" offset="0"></stop><stop stop-color="#3e7742" offset="1"></stop></linearGradient></defs></svg>